<?xml version="1.0" standalone="no"?><!DOCTYPE svg PUBLIC "-//W3C//DTD SVG 1.1//EN" "http://www.w3.org/Graphics/SVG/1.1/DTD/svg11.dtd"><svg class="icon" width="200px" height="189.98px" viewBox="0 0 1078 1024" version="1.1" xmlns="http://www.w3.org/2000/svg"><path d="M297.984 648.533333a25.941333 25.941333 0 0 0-11.605333 34.133334c3.242667 6.997333 84.309333 170.666667 258.56 170.666666 166.912 0 271.189333-150.528 282.624-167.765333a25.941333 25.941333 0 0 0-7.509334-37.034667 25.6 25.6 0 0 0-35.498666 7.338667c-3.925333 5.802667-98.645333 144.384-238.933334 144.384s-211.968-140.288-212.650666-141.653333a25.770667 25.770667 0 0 0-34.986667-10.069334z" fill="#FBB03B" /><path d="M385.706667 576.341333a61.610667 61.610667 0 1 0 0-123.221333 61.610667 61.610667 0 0 0-43.52 18.090667A60.928 60.928 0 0 0 324.266667 514.730667a61.610667 61.610667 0 0 0 61.44 61.610666zM735.914667 576.341333a61.610667 61.610667 0 0 0 0-123.221333 61.781333 61.781333 0 0 0-61.610667 61.610667 61.781333 61.781333 0 0 0 61.610667 61.610666zM715.264 48.469333c8.192 4.437333 80.725333 44.544 95.914667 99.328a77.653333 77.653333 0 0 1-11.946667 64.853334 87.210667 87.210667 0 0 1-56.149333 41.984c-53.418667 12.288-115.541333-25.429333-118.272-26.965334a25.770667 25.770667 0 0 0-35.328 7.850667 26.453333 26.453333 0 0 0-3.413334 19.285333 25.770667 25.770667 0 0 0 11.264 16.042667 257.706667 257.706667 0 0 0 123.221334 37.376 142.506667 142.506667 0 0 0 34.133333-3.754667 138.24 138.24 0 0 0 88.746667-64.853333 127.829333 127.829333 0 0 0 17.066666-105.642667C838.997333 56.661333 748.544 8.021333 738.304 2.730667a25.941333 25.941333 0 0 0-34.133333 11.264 25.770667 25.770667 0 0 0 11.093333 34.474666z"  /><path d="M1006.933333 494.933333c-11.605333-7.168-11.434667-17.066667-11.093333-29.184v-5.973333a26.965333 26.965333 0 0 0 0-3.925333 559.957333 559.957333 0 0 0-63.488-187.733334l-0.853333-1.194666-3.072-5.290667A25.088 25.088 0 0 0 887.466667 290.133333a494.933333 494.933333 0 0 1 57.344 170.666667 140.288 140.288 0 0 0 3.413333 41.130667 32.085333 32.085333 0 0 0 19.285333 30.378666A90.282667 90.282667 0 0 1 1025.194667 631.466667a87.893333 87.893333 0 0 1-74.581334 80.213333l-11.946666 1.365333-9.557334 14.336C795.306667 929.962667 645.12 972.8 542.890667 972.8 307.2 972.8 172.714667 733.866667 170.666667 731.818667l-7.338667-13.141334h-14.336C136.533333 718.677333 53.077333 699.733333 51.2 624.981333c-1.536-59.904 22.016-76.458667 41.130667-89.770666l1.194666-1.024a93.354667 93.354667 0 0 0 14.165334-11.264 114.346667 114.346667 0 0 0 26.282666-64.170667C211.285333 64.341333 578.56 98.986667 593.92 100.693333c9.898667 1.536 18.773333 3.584 28.330667 5.632h4.096a25.941333 25.941333 0 0 0 30.549333-19.797333 25.941333 25.941333 0 0 0-19.797333-30.549333c-11.776-2.389333-23.552-4.949333-36.522667-6.826667C596.309333 49.493333 170.666667 5.461333 83.626667 450.389333v2.901334a68.266667 68.266667 0 0 1-11.605334 34.133333 62.805333 62.805333 0 0 1-8.192 6.314667h-0.853333c-22.698667 16.213333-64.853333 46.08-62.464 132.949333s79.872 133.461333 133.12 141.312c28.672 46.592 170.666667 256 409.6 256 114.005333 0 280.064-45.738667 426.666667-263.338667a136.533333 136.533333 0 0 0 107.52-122.538666A144.554667 144.554667 0 0 0 1006.933333 494.933333z"  /></svg>