<?xml version="1.0" standalone="no"?><!DOCTYPE svg PUBLIC "-//W3C//DTD SVG 1.1//EN" "http://www.w3.org/Graphics/SVG/1.1/DTD/svg11.dtd"><svg class="icon" width="200px" height="200.00px" viewBox="0 0 1024 1024" version="1.1" xmlns="http://www.w3.org/2000/svg"><path d="M262.058667 201.728L822.272 761.924267l-60.347733 60.347733L201.728 262.058667z" fill="#00B386" /><path d="M512 68.266667C266.922667 68.266667 68.266667 266.922667 68.266667 512s198.656 443.733333 443.733333 443.733333 443.733333-198.656 443.733333-443.733333S757.077333 68.266667 512 68.266667z m0 68.266666c207.36 0 375.466667 168.106667 375.466667 375.466667s-168.106667 375.466667-375.466667 375.466667S136.533333 719.36 136.533333 512 304.64 136.533333 512 136.533333z" fill="#444444" /><path d="M494.933333 102.4a34.133333 34.133333 0 0 1 34.133334 34.133333c0 216.797867-175.735467 392.533333-392.533334 392.533334a34.133333 34.133333 0 1 1 0-68.266667c179.080533 0 324.266667-145.186133 324.266667-324.266667a34.133333 34.133333 0 0 1 34.133333-34.133333zM921.6 477.866667a34.133333 34.133333 0 1 1 0 68.266666c-197.9392 0-358.4 160.4608-358.4 358.4a34.133333 34.133333 0 1 1-68.266667 0c0-235.639467 191.0272-426.666667 426.666667-426.666666z" fill="#444444" /></svg>